<mxfile host="65bd71144e">
    <diagram id="ZorfsFwzWIP0KPmGrwWV" name="Page-1">
        <mxGraphModel dx="489" dy="273" grid="1" gridSize="10" guides="1" tooltips="1" connect="1" arrows="1" fold="1" page="1" pageScale="1" pageWidth="827" pageHeight="1169" math="0" shadow="0">
            <root>
                <mxCell id="0"/>
                <mxCell id="1" parent="0"/>
                <mxCell id="3" style="edgeStyle=none;html=1;entryX=0.528;entryY=0.022;entryDx=0;entryDy=0;entryPerimeter=0;" parent="1" source="2" target="4" edge="1">
                    <mxGeometry relative="1" as="geometry">
                        <mxPoint x="264.22" y="128.44" as="targetPoint"/>
                    </mxGeometry>
                </mxCell>
                <mxCell id="2" value="Start" style="strokeWidth=2;html=1;shape=mxgraph.flowchart.terminator;whiteSpace=wrap;" parent="1" vertex="1">
                    <mxGeometry x="210" y="30" width="100" height="60" as="geometry"/>
                </mxCell>
                <mxCell id="5" style="edgeStyle=none;html=1;entryX=0.5;entryY=0;entryDx=0;entryDy=0;" edge="1" parent="1" source="4" target="6">
                    <mxGeometry relative="1" as="geometry">
                        <mxPoint x="250" y="220" as="targetPoint"/>
                    </mxGeometry>
                </mxCell>
                <mxCell id="4" value="get&amp;nbsp;&lt;br&gt;mean: number ,std: number" style="shape=parallelogram;html=1;strokeWidth=2;perimeter=parallelogramPerimeter;whiteSpace=wrap;rounded=1;arcSize=12;size=0.23;" vertex="1" parent="1">
                    <mxGeometry x="100" y="120" width="300" height="60" as="geometry"/>
                </mxCell>
                <mxCell id="8" value="" style="edgeStyle=none;html=1;" edge="1" parent="1" source="6" target="7">
                    <mxGeometry relative="1" as="geometry"/>
                </mxCell>
                <mxCell id="6" value="&lt;div&gt;var _2PI = Math.PI * 2;&lt;/div&gt;&lt;div&gt;&amp;nbsp; var u1 = Math.random();&lt;/div&gt;&lt;div&gt;&amp;nbsp; var u2 = Math.random();&lt;/div&gt;" style="rounded=1;whiteSpace=wrap;html=1;absoluteArcSize=1;arcSize=14;strokeWidth=2;" vertex="1" parent="1">
                    <mxGeometry x="160" y="230" width="180" height="100" as="geometry"/>
                </mxCell>
                <mxCell id="10" style="edgeStyle=none;html=1;entryX=0.579;entryY=0.057;entryDx=0;entryDy=0;entryPerimeter=0;" edge="1" parent="1" source="7" target="9">
                    <mxGeometry relative="1" as="geometry"/>
                </mxCell>
                <mxCell id="7" value="&lt;div&gt;var z0 = Math.sqrt(-2.0 * Math.log(u1)) * Math.cos(_2PI * u2);&lt;/div&gt;&lt;div&gt;&amp;nbsp; var z1 = Math.sqrt(-2.0 * Math.log(u1)) * Math.sin(_2PI * u2);&lt;/div&gt;" style="rounded=1;whiteSpace=wrap;html=1;arcSize=14;strokeWidth=2;" vertex="1" parent="1">
                    <mxGeometry x="75" y="390" width="350" height="70" as="geometry"/>
                </mxCell>
                <mxCell id="11" style="edgeStyle=none;html=1;entryX=0.5;entryY=0;entryDx=0;entryDy=0;entryPerimeter=0;" edge="1" parent="1" source="9" target="12">
                    <mxGeometry relative="1" as="geometry">
                        <mxPoint x="237" y="600" as="targetPoint"/>
                    </mxGeometry>
                </mxCell>
                <mxCell id="9" value="return&lt;br&gt;z0 * std + mean;" style="shape=parallelogram;html=1;strokeWidth=2;perimeter=parallelogramPerimeter;whiteSpace=wrap;rounded=1;arcSize=12;size=0.23;" vertex="1" parent="1">
                    <mxGeometry x="147" y="490" width="180" height="60" as="geometry"/>
                </mxCell>
                <mxCell id="12" value="Start" style="strokeWidth=2;html=1;shape=mxgraph.flowchart.terminator;whiteSpace=wrap;" vertex="1" parent="1">
                    <mxGeometry x="187" y="600" width="100" height="60" as="geometry"/>
                </mxCell>
            </root>
        </mxGraphModel>
    </diagram>
</mxfile>